<svg xmlns="http://www.w3.org/2000/svg" viewBox="0 0 100 100" width="100" height="100" fill="none">
  <rect width="100" height="100" rx="14" fill="#090500"/>
  <path d="M0 8h100M0 18h100M0 28h100M0 38h100M0 48h100M0 58h100M0 68h100M0 78h100M0 88h100" stroke="#ffb000" stroke-opacity=".13" stroke-width="2"/>
  <polygon points="90,50 70,84.64 30,84.64 10,50 30,15.36 70,15.36" fill="none" stroke="#ffb000" stroke-width="5" stroke-linejoin="round" opacity="0.28"/>
  <polygon points="78,50 64,74.25 36,74.25 22,50 36,25.75 64,25.75" fill="none" stroke="#ffb000" stroke-width="5" stroke-linejoin="round" opacity="0.62"/>
  <polygon points="66,50 58,63.86 42,63.86 34,50 42,36.14 58,36.14" fill="none" stroke="#ffb000" stroke-width="5" stroke-linejoin="round"/>
  <circle cx="50" cy="50" r="7" fill="#ffb000"/>
</svg>
