<svg xmlns="http://www.w3.org/2000/svg" viewBox="0 0 340 100" width="340" height="100" fill="none">
  <rect x="2" y="8" width="326" height="84" rx="10" fill="#090500" stroke="#5f3708"/>
  <path d="M2 20h326M2 32h326M2 44h326M2 56h326M2 68h326M2 80h326" stroke="#ffb000" stroke-opacity=".11" stroke-width="1.5"/>
  <g filter="url(#phosphor)">
    <polygon points="90,50 70,84.64 30,84.64 10,50 30,15.36 70,15.36" fill="none" stroke="#ffb000" stroke-width="4.5" stroke-linejoin="round" opacity="0.3"/>
    <polygon points="78,50 64,74.25 36,74.25 22,50 36,25.75 64,25.75" fill="none" stroke="#ffb000" stroke-width="4.5" stroke-linejoin="round" opacity="0.65"/>
    <polygon points="66,50 58,63.86 42,63.86 34,50 42,36.14 58,36.14" fill="none" stroke="#ffb000" stroke-width="4.5" stroke-linejoin="round"/>
    <circle cx="50" cy="50" r="6.5" fill="#ffb000"/>
    <text x="112" y="64" font-family="'Share Tech Mono', 'JetBrains Mono', monospace" font-weight="400" font-size="42" letter-spacing="8" fill="#ffb000">BEACON_</text>
  </g>
  <defs>
    <filter id="phosphor" x="-20%" y="-35%" width="140%" height="170%">
      <feGaussianBlur stdDeviation="1.6" result="blur"/>
      <feMerge>
        <feMergeNode in="blur"/>
        <feMergeNode in="SourceGraphic"/>
      </feMerge>
    </filter>
  </defs>
</svg>
