<svg xmlns="http://www.w3.org/2000/svg" viewBox="0 0 64 64" width="64" height="64" fill="none" role="img" aria-label="sensor observer master" style="color:var(--node-color,#ffc24a);filter:drop-shadow(0 0 4px currentColor);overflow:visible">
  <g transform="translate(32,32)">
    <circle cx="0" cy="0" r="20" fill="none" stroke="currentColor" stroke-width="2" opacity="0">
      
      
    </circle>
  </g>
  <path d="M32 3 A29 29 0 0 1 61 32 A29 29 0 0 1 32 61 A29 29 0 0 1 3 32 A29 29 0 0 1 24 4 Z" fill="currentColor" fill-opacity="0.16"></path>
  <circle cx="32" cy="32" r="29" fill="none" stroke="currentColor" stroke-width="2"></circle>
  <path d="M44 6 L58 20" stroke="currentColor" stroke-width="2" stroke-linecap="round" opacity="0.8"></path>
  <g fill="none" stroke="currentColor" stroke-width="3" stroke-linecap="round" stroke-linejoin="round">
    <circle cx="32" cy="32" r="13.5"></circle>
    <circle cx="32" cy="32" r="6.5"></circle>
    <circle cx="32" cy="32" r="2.1" fill="currentColor" stroke="none"></circle>
    <line x1="32" y1="13" x2="32" y2="18.5"></line>
    <line x1="32" y1="45.5" x2="32" y2="51"></line>
    <line x1="13" y1="32" x2="18.5" y2="32"></line>
    <line x1="45.5" y1="32" x2="51" y2="32"></line>
  </g>
  <g>
    <circle cx="50.5" cy="50.5" r="14.4" fill="#090500"></circle>
    <circle cx="50.5" cy="50.5" r="12" fill="#090500" stroke="var(--observer-color, #42ff7c)" stroke-width="2"></circle>
    <path d="M 44.2 50.5 C 47.4 46, 53.6 46, 56.8 50.5 C 53.6 55, 47.4 55, 44.2 50.5 Z" fill="none" stroke="var(--observer-color, #42ff7c)" stroke-width="1.9" stroke-linejoin="round"></path>
    <circle cx="50.5" cy="50.5" r="2.2" fill="var(--observer-color, #42ff7c)"></circle>
  </g>
</svg>