<svg xmlns="http://www.w3.org/2000/svg" viewBox="0 0 64 64" width="64" height="64" fill="none" role="img" aria-label="repeater master" style="color:var(--node-color,#65d8ff);filter:drop-shadow(0 0 4px currentColor);overflow:visible">
  <g transform="translate(32,32)">
    <circle cx="0" cy="0" r="20" fill="none" stroke="currentColor" stroke-width="2" opacity="0">
      
      
    </circle>
  </g>
  <circle cx="32" cy="32" r="29" fill="none" stroke="currentColor" stroke-width="2" opacity="0.9"></circle>
  <g fill="none" stroke="currentColor" stroke-width="3" stroke-linecap="round" stroke-linejoin="round">
    <line x1="32" y1="26" x2="32" y2="45"></line>
    <path d="M32 45 L25 51 M32 45 L39 51"></path>
    <circle cx="32" cy="23" r="2.6" fill="currentColor" stroke="none"></circle>
    <path d="M25.5 17.5 A 10 10 0 0 0 25.5 30.5"></path>
    <path d="M20 13.5 A 15 15 0 0 0 20 34.5"></path>
    <path d="M38.5 17.5 A 10 10 0 0 1 38.5 30.5"></path>
    <path d="M44 13.5 A 15 15 0 0 1 44 34.5"></path>
  </g>
</svg>