<svg xmlns="http://www.w3.org/2000/svg" viewBox="0 0 64 64" width="64" height="64" fill="none" role="img" aria-label="server observer master" style="color:var(--node-color,#42ff7c);filter:drop-shadow(0 0 4px currentColor);overflow:visible">
  <circle cx="32" cy="32" r="29" fill="none" stroke="currentColor" stroke-width="2" opacity="0.9"></circle>
  <g fill="none" stroke="currentColor" stroke-width="3" stroke-linecap="round" stroke-linejoin="round">
    <rect x="18" y="15" width="28" height="34" rx="3.5"></rect>
    <line x1="18" y1="26.3" x2="46" y2="26.3"></line>
    <line x1="18" y1="37.7" x2="46" y2="37.7"></line>
    <circle cx="24" cy="20.6" r="1.9" fill="currentColor" stroke="none"></circle>
    <circle cx="24" cy="32" r="1.9" fill="currentColor" stroke="none"></circle>
    <circle cx="24" cy="43.4" r="1.9" fill="currentColor" stroke="none"></circle>
    <line x1="33" y1="20.6" x2="41" y2="20.6"></line>
    <line x1="33" y1="32" x2="41" y2="32"></line>
    <line x1="33" y1="43.4" x2="41" y2="43.4"></line>
  </g>
  <g>
    <circle cx="50.5" cy="50.5" r="14.4" fill="#090500"></circle>
    <circle cx="50.5" cy="50.5" r="12" fill="#090500" stroke="var(--observer-color, #42ff7c)" stroke-width="2"></circle>
    <path d="M 44.2 50.5 C 47.4 46, 53.6 46, 56.8 50.5 C 53.6 55, 47.4 55, 44.2 50.5 Z" fill="none" stroke="var(--observer-color, #42ff7c)" stroke-width="1.9" stroke-linejoin="round"></path>
    <circle cx="50.5" cy="50.5" r="2.2" fill="var(--observer-color, #42ff7c)"></circle>
  </g>
</svg>